<svg width="15" height="16" viewBox="0 0 15 16" fill="none" xmlns="http://www.w3.org/2000/svg">
<path d="M7.30782 5.26855C6.63126 5.26855 5.98241 5.53732 5.504 6.01572C5.0256 6.49412 4.75684 7.14298 4.75684 7.81954C4.75684 8.4961 5.0256 9.14496 5.504 9.62336C5.98241 10.1018 6.63126 10.3705 7.30782 10.3705C7.98439 10.3705 8.63324 10.1018 9.11164 9.62336C9.59004 9.14496 9.85881 8.4961 9.85881 7.81954C9.85881 7.14298 9.59004 6.49412 9.11164 6.01572C8.63324 5.53732 7.98439 5.26855 7.30782 5.26855Z" fill="white"/>
<path fill-rule="evenodd" clip-rule="evenodd" d="M3.20254 0.819595C5.93093 0.517166 8.68439 0.517166 11.4128 0.819595C12.9033 0.985998 14.1051 2.15945 14.2801 3.65551C14.6036 6.42207 14.6036 9.21693 14.2801 11.9835C14.1051 13.4795 12.9033 14.653 11.4136 14.8202C8.68492 15.1227 5.93119 15.1227 3.20254 14.8202C1.71198 14.653 0.510266 13.4795 0.335229 11.9843C0.0116293 9.21745 0.0116293 6.42233 0.335229 3.65551C0.510266 2.15945 1.71198 0.985998 3.20254 0.819595ZM11.2323 3.10999C11.0241 3.10999 10.8244 3.19268 10.6772 3.33988C10.53 3.48709 10.4473 3.68673 10.4473 3.89491C10.4473 4.10308 10.53 4.30273 10.6772 4.44993C10.8244 4.59713 11.0241 4.67982 11.2323 4.67982C11.4404 4.67982 11.6401 4.59713 11.7873 4.44993C11.9345 4.30273 12.0172 4.10308 12.0172 3.89491C12.0172 3.68673 11.9345 3.48709 11.7873 3.33988C11.6401 3.19268 11.4404 3.10999 11.2323 3.10999ZM3.5793 7.8195C3.5793 6.83068 3.97211 5.88235 4.67131 5.18315C5.37051 4.48394 6.31884 4.09114 7.30766 4.09114C8.29648 4.09114 9.24481 4.48394 9.94401 5.18315C10.6432 5.88235 11.036 6.83068 11.036 7.8195C11.036 8.80832 10.6432 9.75665 9.94401 10.4559C9.24481 11.1551 8.29648 11.5479 7.30766 11.5479C6.31884 11.5479 5.37051 11.1551 4.67131 10.4559C3.97211 9.75665 3.5793 8.80832 3.5793 7.8195Z" fill="white"/>
</svg>
