<svg width="16" height="16" viewBox="0 0 16 16" fill="none" xmlns="http://www.w3.org/2000/svg">
<path d="M16 4.74074V7.7037C16 7.86087 15.9352 8.0116 15.8198 8.12273C15.7044 8.23386 15.5478 8.2963 15.3846 8.2963C14.0991 8.29917 12.832 8.00151 11.6923 7.42889V10.3704C11.6923 11.8634 11.0764 13.2954 9.98001 14.3511C8.88364 15.4069 7.39665 16 5.84615 16C4.29566 16 2.80867 15.4069 1.7123 14.3511C0.615932 13.2954 0 11.8634 0 10.3704C0 7.63704 2.07 5.22074 4.81538 4.74963C4.90395 4.73447 4.99489 4.73819 5.0818 4.76054C5.16871 4.78288 5.24948 4.8233 5.31842 4.87895C5.38735 4.93459 5.44278 5.00412 5.4808 5.08263C5.51882 5.16113 5.5385 5.24671 5.53846 5.33333V8.49556C5.5385 8.60771 5.50549 8.71757 5.44326 8.81237C5.38103 8.90718 5.29214 8.98303 5.18692 9.03111C4.93818 9.14471 4.72565 9.32049 4.5715 9.54013C4.41735 9.75978 4.32722 10.0152 4.31052 10.2798C4.29383 10.5444 4.35117 10.8085 4.47657 11.0445C4.60197 11.2805 4.79084 11.4798 5.02346 11.6216C5.25609 11.7633 5.52396 11.8424 5.79912 11.8505C6.07429 11.8586 6.34668 11.7954 6.58786 11.6676C6.82905 11.5398 7.03021 11.352 7.17035 11.1239C7.3105 10.8957 7.38449 10.6355 7.38462 10.3704V0.592593C7.38462 0.435427 7.44945 0.284699 7.56486 0.173566C7.68026 0.0624337 7.83679 0 8 0H11.0769C11.2401 0 11.3967 0.0624337 11.5121 0.173566C11.6275 0.284699 11.6923 0.435427 11.6923 0.592593C11.6933 1.53528 12.0827 2.43908 12.7749 3.10567C13.4671 3.77225 14.4057 4.14717 15.3846 4.14815C15.5478 4.14815 15.7044 4.21058 15.8198 4.32171C15.9352 4.43285 16 4.58358 16 4.74074Z" fill="white"/>
</svg>
