<svg width="15" height="16" viewBox="0 0 15 16" fill="none" xmlns="http://www.w3.org/2000/svg">
<path fill-rule="evenodd" clip-rule="evenodd" d="M11.3118 0.41223C8.80134 -0.13741 6.19791 -0.13741 3.68742 0.41223L3.41692 0.470845C2.71075 0.625482 2.06217 0.96883 1.54323 1.46275C1.02429 1.95667 0.65531 2.58182 0.477275 3.26875C-0.159092 5.72476 -0.159092 8.29755 0.477275 10.7536C0.647059 11.4087 0.99068 12.0082 1.4733 12.4913C1.95592 12.9745 2.56039 13.324 3.22541 13.5046L3.59646 15.6741C3.6083 15.743 3.63879 15.8075 3.68474 15.861C3.73069 15.9144 3.79043 15.9548 3.85773 15.9779C3.92503 16.0011 3.99743 16.0061 4.0674 15.9926C4.13737 15.979 4.20235 15.9473 4.25556 15.9008L6.43476 13.9915C8.07063 14.0892 9.71241 13.9611 11.3118 13.6109L11.5831 13.5522C12.2893 13.3976 12.9379 13.0543 13.4568 12.5603C13.9758 12.0664 14.3447 11.4413 14.5228 10.7543C15.1591 8.29832 15.1591 5.72555 14.5228 3.26954C14.3447 2.5825 13.9756 1.95728 13.4565 1.46335C12.9374 0.969425 12.2886 0.626134 11.5823 0.471627L11.3118 0.41223ZM4.36089 3.20545C4.21259 3.18431 4.06137 3.21354 3.93239 3.28829H3.92122C3.62199 3.46023 3.35229 3.67672 3.12248 3.9315C2.93097 4.14799 2.82724 4.36682 2.8001 4.57783C2.78415 4.70288 2.79532 4.82949 2.83282 4.94906L2.84718 4.95688C3.06263 5.57664 3.34351 6.17295 3.68663 6.7341C4.12905 7.52227 4.67349 8.25122 5.30646 8.90287L5.32561 8.92944L5.35594 8.95132L5.37429 8.97242L5.39663 8.99118C6.0643 9.613 6.81029 10.1488 7.61653 10.5855C8.53816 11.0771 9.09752 11.3092 9.43346 11.4061V11.4108C9.5316 11.4405 9.62097 11.4538 9.71114 11.4538C9.99724 11.4331 10.268 11.3192 10.4804 11.1303C10.7397 10.9052 10.9591 10.6402 11.1299 10.3456V10.3401C11.2903 10.0431 11.236 9.76334 11.0046 9.57343C10.5398 9.17565 10.0372 8.82235 9.50368 8.51835C9.14619 8.32844 8.78313 8.44332 8.6363 8.63558L8.32271 9.02322C8.16152 9.21548 7.86948 9.18891 7.86948 9.18891L7.8615 9.1936C5.6823 8.64887 5.10059 6.48791 5.10059 6.48791C5.10059 6.48791 5.07346 6.19405 5.27534 6.044L5.66793 5.73451C5.85625 5.58445 5.98711 5.22964 5.78523 4.87951C5.47691 4.35647 5.1169 3.86435 4.7104 3.41021C4.62173 3.30333 4.4974 3.23054 4.3593 3.20467L4.36089 3.20545ZM8.04263 2.26604C7.93682 2.26604 7.83534 2.30721 7.76051 2.38049C7.68569 2.45378 7.64366 2.55317 7.64366 2.65681C7.64366 2.76045 7.68569 2.85984 7.76051 2.93313C7.83534 3.00641 7.93682 3.04758 8.04263 3.04758C9.05204 3.04758 9.88988 3.37035 10.553 3.98933C10.8937 4.32774 11.1594 4.72867 11.3334 5.16789C11.5081 5.6079 11.5879 6.0776 11.5672 6.54809C11.565 6.59941 11.5731 6.65065 11.5911 6.69888C11.6091 6.74712 11.6367 6.7914 11.6722 6.82921C11.7439 6.90558 11.8436 6.95092 11.9494 6.95527C12.0552 6.95963 12.1585 6.92263 12.2364 6.85242C12.3144 6.78222 12.3607 6.68455 12.3651 6.58092C12.3899 6.00217 12.2918 5.4247 12.0771 4.88498C11.8614 4.34269 11.5344 3.84953 11.1163 3.436L11.1084 3.42819C10.2857 2.65837 9.24434 2.26604 8.04263 2.26604ZM8.0155 3.55089C7.90969 3.55089 7.8082 3.59206 7.73338 3.66534C7.65856 3.73863 7.61653 3.83802 7.61653 3.94166C7.61653 4.0453 7.65856 4.14469 7.73338 4.21798C7.8082 4.29126 7.90969 4.33243 8.0155 4.33243H8.02907C8.75679 4.38323 9.28663 4.62082 9.65768 5.0108C10.0383 5.41252 10.2354 5.91192 10.2202 6.52933C10.2178 6.63297 10.2575 6.73331 10.3306 6.80828C10.4037 6.88325 10.5042 6.92671 10.61 6.92909C10.7158 6.93148 10.8183 6.89259 10.8948 6.82099C10.9714 6.74939 11.0157 6.65095 11.0182 6.54731C11.0373 5.73685 10.7708 5.03738 10.2426 4.47936V4.4778C9.70236 3.9104 8.96107 3.61029 8.06896 3.55167L8.0554 3.55011L8.0155 3.55089ZM8.00034 4.85997C7.94695 4.85535 7.89315 4.86132 7.84216 4.87752C7.79118 4.89372 7.74405 4.91982 7.70359 4.95425C7.66313 4.98868 7.63016 5.03075 7.60667 5.07794C7.58317 5.12512 7.56963 5.17646 7.56684 5.22889C7.56405 5.28132 7.57207 5.33376 7.59043 5.38308C7.6088 5.43241 7.63712 5.4776 7.6737 5.51596C7.71029 5.55433 7.7544 5.58508 7.80339 5.60638C7.85238 5.62768 7.90525 5.6391 7.95885 5.63994C8.29239 5.65714 8.50544 5.75561 8.6395 5.88769C8.77435 6.02055 8.87489 6.23391 8.89324 6.56763C8.89424 6.62007 8.906 6.67178 8.92784 6.71967C8.94967 6.76756 8.98112 6.81066 9.02032 6.8464C9.05952 6.88213 9.10566 6.90977 9.156 6.92767C9.20633 6.94557 9.25983 6.95336 9.31331 6.95058C9.36678 6.9478 9.41914 6.9345 9.46726 6.91148C9.51538 6.88846 9.55827 6.85619 9.59338 6.81659C9.6285 6.77699 9.65511 6.73087 9.67164 6.68098C9.68817 6.63109 9.69428 6.57846 9.6896 6.52621C9.66406 6.05728 9.51405 5.64307 9.20684 5.33827C8.89803 5.03347 8.47751 4.88498 8.00034 4.85997Z" fill="white"/>
</svg>
