<svg width="14" height="14" viewBox="0 0 14 14" fill="none" xmlns="http://www.w3.org/2000/svg">
<path d="M7.00001 0C10.8661 0 14 3.1339 14 7C14 10.8661 10.8661 14 7.00001 14C5.76295 14.002 4.54767 13.6746 3.47901 13.0515L0.00280985 14L0.949209 10.5224C0.325575 9.45341 -0.00205686 8.23759 9.71617e-06 7C9.71617e-06 3.1339 3.13391 0 7.00001 0ZM4.61441 3.71L4.47441 3.7156C4.38377 3.72112 4.29519 3.74493 4.21401 3.7856C4.13807 3.8286 4.06875 3.88235 4.00821 3.9452C3.92421 4.0243 3.87661 4.0929 3.82551 4.1594C3.56659 4.49603 3.42719 4.90932 3.42931 5.334C3.43071 5.677 3.52031 6.0109 3.66031 6.3231C3.94661 6.95449 4.41771 7.62299 5.03931 8.24249C5.18911 8.39159 5.33611 8.54139 5.49431 8.68069C6.26668 9.36072 7.18708 9.85112 8.1823 10.1129L8.5799 10.1738C8.7094 10.1808 8.8389 10.171 8.9691 10.1647C9.17297 10.1542 9.37203 10.099 9.5522 10.003C9.64387 9.95578 9.73333 9.90439 9.8203 9.84899C9.8203 9.84899 9.8504 9.82939 9.9078 9.78599C10.0023 9.71599 10.0604 9.66629 10.1388 9.58439C10.1969 9.52419 10.2473 9.45349 10.2858 9.37299C10.3404 9.25889 10.395 9.04119 10.4174 8.85989C10.4342 8.72129 10.4293 8.64569 10.4272 8.59879C10.4244 8.52389 10.3621 8.44619 10.2942 8.41329L9.8868 8.23059C9.8868 8.23059 9.2778 7.96529 8.9054 7.79589C8.86644 7.77888 8.82468 7.76915 8.7822 7.76719C8.73431 7.76228 8.68592 7.76766 8.64028 7.783C8.59464 7.79833 8.55281 7.82326 8.5176 7.85609C8.5141 7.85469 8.4672 7.89459 7.9611 8.50779C7.93206 8.54683 7.89204 8.57633 7.84617 8.59253C7.80029 8.60874 7.75062 8.61092 7.7035 8.59879C7.6579 8.58657 7.61323 8.57113 7.5698 8.55259C7.483 8.51619 7.4529 8.50219 7.3934 8.47699C6.99165 8.30168 6.61969 8.0648 6.29091 7.77489C6.20271 7.6979 6.12081 7.61389 6.03681 7.53269C5.76142 7.26896 5.52141 6.9706 5.32281 6.6451L5.28151 6.5786C5.25184 6.53391 5.22786 6.48571 5.21011 6.4351C5.18351 6.3322 5.25281 6.2496 5.25281 6.2496C5.25281 6.2496 5.42291 6.0634 5.50201 5.9626C5.57901 5.8646 5.64411 5.7694 5.68611 5.7015C5.76871 5.5685 5.79461 5.432 5.75121 5.3263C5.55521 4.8475 5.35221 4.3708 5.14361 3.8976C5.10231 3.8038 4.97981 3.7366 4.86851 3.7233C4.83071 3.7191 4.79291 3.7149 4.75511 3.7121C4.6611 3.70743 4.5669 3.70836 4.47301 3.7149L4.61371 3.7093L4.61441 3.71Z" fill="white"/>
</svg>
