<svg width="82" height="82" viewBox="0 0 82 82" fill="none" xmlns="http://www.w3.org/2000/svg">
<path d="M1.73114 40.3477C1.72924 47.2098 3.52388 53.9101 6.93636 59.8159L1.40479 79.9943L22.0736 74.5798C27.7903 77.6891 34.1955 79.3183 40.7044 79.3187H40.7215C62.2087 79.3187 79.6998 61.8499 79.709 40.3784C79.7131 29.9739 75.6613 20.1902 68.2995 12.8295C60.9391 5.46941 51.15 1.41393 40.7199 1.40918C19.2302 1.40918 1.74033 18.8771 1.73146 40.3477" fill="url(#paint0_linear_26_262)"/>
<path d="M0.33903 40.3351C0.336812 47.4442 2.19577 54.3842 5.72993 60.5015L0 81.4031L21.4099 75.7946C27.309 79.008 33.9509 80.7023 40.7093 80.7048H40.7267C62.9848 80.7048 81.1042 62.6075 81.1138 40.3674C81.1176 29.5891 76.9199 19.4537 69.2952 11.8293C61.6696 4.20585 51.5304 0.00443188 40.7267 0C18.4648 0 0.347902 18.0947 0.33903 40.3351ZM13.0891 59.4479L12.2897 58.1801C8.92917 52.8416 7.15544 46.6724 7.15797 40.3377C7.16526 21.852 22.2233 6.81243 40.7394 6.81243C49.7063 6.81623 58.1332 10.3085 64.4715 16.6449C70.8095 22.9818 74.297 31.4055 74.2948 40.3649C74.2866 58.8506 59.2282 73.8921 40.7267 73.8921H40.7134C34.6891 73.8889 28.7808 72.2725 23.6282 69.218L22.402 68.4915L9.6969 71.8195L13.0891 59.4476V59.4479Z" fill="url(#paint1_linear_26_262)"/>
<path d="M30.6326 23.4725C29.8766 21.7938 29.081 21.7599 28.3621 21.7305C27.7734 21.7052 27.1004 21.7071 26.428 21.7071C25.755 21.7071 24.6616 21.96 23.7373 22.9682C22.8121 23.9775 20.2051 26.4162 20.2051 31.3765C20.2051 36.337 23.8213 41.1307 24.3254 41.804C24.8301 42.4761 31.3066 52.9809 41.5637 57.0222C50.0882 60.3806 51.823 59.7126 53.6731 59.5442C55.5235 59.3764 59.6438 57.106 60.4844 54.7518C61.3256 52.3978 61.3256 50.38 61.0734 49.9584C60.8212 49.5383 60.1482 49.286 59.139 48.782C58.1296 48.2777 53.1683 45.8386 52.2434 45.5021C51.3182 45.1659 50.6455 44.9982 49.9726 46.0077C49.2996 47.0156 47.3671 49.286 46.7781 49.9584C46.1897 50.6323 45.6007 50.7162 44.5918 50.2119C43.582 49.7061 40.3321 48.6427 36.4763 45.2084C33.4764 42.5359 31.4511 39.2358 30.8623 38.2263C30.2736 37.2183 30.7993 36.6719 31.3053 36.1695C31.7587 35.7178 32.3148 34.9922 32.8199 34.4038C33.323 33.815 33.4909 33.3949 33.8274 32.7225C34.1642 32.0495 33.9957 31.4607 33.7438 30.9564C33.4909 30.4521 31.53 25.4659 30.6326 23.4725Z" fill="white"/>
<defs>
<linearGradient id="paint0_linear_26_262" x1="3916.62" y1="7859.92" x2="3916.62" y2="1.40918" gradientUnits="userSpaceOnUse">
<stop stop-color="#1FAF38"/>
<stop offset="1" stop-color="#60D669"/>
</linearGradient>
<linearGradient id="paint1_linear_26_262" x1="4055.69" y1="8140.31" x2="4055.69" y2="0" gradientUnits="userSpaceOnUse">
<stop stop-color="#F9F9F9"/>
<stop offset="1" stop-color="white"/>
</linearGradient>
</defs>
</svg>
