<?xml version="1.0" standalone="no"?>
<!DOCTYPE svg PUBLIC "-//W3C//DTD SVG 20010904//EN"
 "http://www.w3.org/TR/2001/REC-SVG-20010904/DTD/svg10.dtd">
<svg version="1.0" xmlns="http://www.w3.org/2000/svg"
 width="2560.000000pt" height="1280.000000pt" viewBox="0 0 2560.000000 1280.000000"
 preserveAspectRatio="xMidYMid meet">

<g transform="translate(0.000000,1280.000000) scale(0.100000,-0.100000)"
fill="#000000" stroke="none">
<path d="M1 12323 l1 -478 3321 -1658 3322 -1658 940 3 940 3 -4262 2133
-4263 2132 1 -477z"/>
<path d="M6760 10850 c2142 -1072 3898 -1949 3903 -1949 4 -1 7 877 7 1949 l0
1950 -3902 -1 -3903 0 3895 -1949z"/>
<path d="M11520 10240 l0 -2560 -5760 0 -5760 0 0 -1280 0 -1280 5760 0 5760
0 0 -2560 0 -2560 1280 0 1280 0 0 2560 0 2560 5760 0 5760 0 0 1280 0 1280
-5760 0 -5760 0 0 2560 0 2560 -1280 0 -1280 0 0 -2560z"/>
<path d="M14930 10850 c0 -1072 3 -1950 8 -1949 4 0 1760 877 3902 1949 l3895
1949 -3902 0 -3903 1 0 -1950z"/>
<path d="M19433 10667 l-4263 -2132 943 -3 942 -3 4270 2135 4270 2135 -950 0
-950 0 -4262 -2132z"/>
<path d="M0 9950 l0 -1420 2830 0 c1557 0 2830 2 2830 5 0 3 -1273 642 -2830
1420 l-2830 1415 0 -1420z"/>
<path d="M22765 9951 l-2830 -1416 2829 -3 c1556 -1 2831 -1 2833 1 2 2 2 641
1 1419 l-3 1416 -2830 -1417z"/>
<path d="M0 2850 l0 -1420 2830 1415 c1557 778 2830 1417 2830 1420 0 3 -1273
5 -2830 5 l-2830 0 0 -1420z"/>
<path d="M4273 2136 l-4268 -2135 953 0 952 -1 4260 2130 c2343 1172 4260
2132 4260 2135 0 3 -425 5 -945 5 l-945 0 -4267 -2134z"/>
<path d="M17080 4265 c0 -3 1917 -963 4260 -2135 l4260 -2130 0 478 0 477
-3317 1658 -3318 1658 -942 0 c-519 -1 -943 -3 -943 -6z"/>
<path d="M19940 4265 c0 -3 1274 -642 2830 -1420 l2830 -1415 0 1420 0 1420
-2830 0 c-1556 0 -2830 -2 -2830 -5z"/>
<path d="M6760 1950 l-3895 -1949 3903 0 3902 -1 0 1950 c0 1073 -3 1950 -7
1949 -5 0 -1761 -877 -3903 -1949z"/>
<path d="M14930 1950 l0 -1950 3903 1 3902 0 -3895 1949 c-2142 1072 -3898
1949 -3902 1949 -5 1 -8 -876 -8 -1949z"/>
</g>
</svg>
